<svg width="512" height="512" viewBox="0 0 512 512" fill="none" xmlns="http://www.w3.org/2000/svg">
<g id="04d 1">
<g id="cloudy">
<g id="Group">
<path id="Vector" d="M333.523 127C296.235 127 262.651 142.773 239.042 168.015C226.402 153.452 207.747 144.243 186.942 144.243C148.849 144.243 117.967 175.125 117.967 213.217C117.967 213.787 117.975 214.365 117.99 214.936C78.625 222.92 49 257.716 49 299.434C49 347.042 87.601 385.65 135.217 385.65H333.523C404.943 385.65 462.833 327.746 462.833 256.326C462.833 184.897 404.943 127 333.523 127Z" fill="#D7DCE2"/>
</g>
<g id="Group_2">
<path id="Vector_2" d="M413.677 154.835C431.099 176.866 441.521 204.716 441.521 234.989C441.521 306.417 383.617 364.321 312.181 364.321H113.882C95.524 364.321 78.509 358.571 64.525 348.791C80.111 371.07 105.962 385.648 135.218 385.648H333.523C404.943 385.648 462.833 327.744 462.833 256.324C462.833 215.177 443.614 178.522 413.677 154.835Z" fill="#CCD1D9"/>
</g>
</g>
</g>
</svg>
